<svg id="svg" version="1.1" xmlns="http://www.w3.org/2000/svg" xmlns:xlink="http://www.w3.org/1999/xlink" width="400" height="318.6" viewBox="0, 0, 400,318.6"><g id="svgg"><path id="path0" d="M112.215 29.882 C 112.087 30.037,112.018 30.419,112.064 30.732 C 112.109 31.044,112.057 31.413,111.948 31.550 C 111.814 31.720,111.846 31.998,112.046 32.410 L 112.341 33.020 112.468 31.805 C 112.538 31.137,112.651 30.367,112.719 30.095 C 112.856 29.551,112.585 29.437,112.215 29.882 M147.229 31.665 C 146.926 32.030,145.964 34.231,146.064 34.330 C 146.269 34.535,147.800 32.045,147.800 31.506 C 147.800 31.303,147.448 31.401,147.229 31.665 M112.040 34.440 C 111.758 34.722,111.726 35.000,111.977 35.000 C 112.074 35.000,112.200 34.820,112.258 34.600 C 112.380 34.133,112.361 34.119,112.040 34.440 M112.399 35.550 C 112.273 36.182,112.089 37.015,111.991 37.400 C 111.893 37.785,111.819 38.611,111.827 39.236 C 111.835 39.861,111.780 40.471,111.705 40.592 C 111.630 40.713,111.542 42.407,111.510 44.356 C 111.463 47.196,111.347 48.432,110.926 50.577 C 110.637 52.049,110.407 53.579,110.416 53.977 L 110.431 54.700 110.800 53.700 C 111.003 53.150,111.176 52.413,111.184 52.062 C 111.193 51.711,111.280 51.374,111.378 51.313 C 111.476 51.253,111.619 50.280,111.696 49.152 C 111.772 48.023,112.055 46.217,112.324 45.138 C 112.842 43.058,112.922 41.022,112.532 39.842 C 112.368 39.349,112.375 39.086,112.557 38.795 C 112.691 38.581,112.800 37.976,112.800 37.451 C 112.800 36.927,112.883 36.209,112.984 35.857 C 113.175 35.190,113.071 34.400,112.791 34.400 C 112.701 34.400,112.525 34.918,112.399 35.550 M146.016 36.950 C 145.671 37.363,145.269 37.835,145.123 38.000 C 144.631 38.552,142.600 42.938,142.600 43.448 C 142.600 43.725,142.475 44.055,142.322 44.182 C 141.970 44.474,140.509 47.979,140.188 49.300 C 140.055 49.850,139.868 50.385,139.773 50.490 C 139.532 50.754,139.556 51.400,139.806 51.400 C 139.920 51.400,140.063 51.242,140.125 51.050 C 140.466 49.988,140.675 49.595,140.821 49.741 C 141.188 50.108,140.177 52.851,138.427 56.237 C 136.671 59.638,136.372 60.400,136.795 60.400 C 137.136 60.400,137.511 59.627,139.896 54.000 C 141.933 49.194,142.599 47.692,143.931 44.903 C 144.115 44.517,144.143 44.281,144.008 44.236 C 143.685 44.128,143.762 43.342,144.149 42.795 C 144.906 41.723,145.803 39.679,146.026 38.520 C 146.155 37.849,146.433 37.053,146.644 36.750 C 147.213 35.933,146.738 36.084,146.016 36.950 M139.357 44.350 C 138.950 44.816,138.599 45.512,138.606 45.837 C 138.615 46.262,139.800 44.833,139.800 44.397 C 139.800 43.911,139.745 43.905,139.357 44.350 M114.468 50.900 C 114.230 51.670,113.972 52.795,113.894 53.400 C 113.816 54.005,113.587 54.950,113.385 55.500 C 112.890 56.847,111.665 61.657,111.501 62.900 C 111.429 63.450,111.196 64.198,110.985 64.561 C 110.773 64.925,110.600 65.550,110.600 65.949 C 110.600 66.349,110.231 68.796,109.781 71.388 C 109.202 74.714,108.991 76.434,109.060 77.235 C 109.180 78.612,108.874 79.197,108.110 79.051 C 107.500 78.934,107.215 79.458,107.575 80.035 C 107.706 80.245,107.764 80.496,107.704 80.594 C 107.643 80.692,107.690 80.832,107.809 80.906 C 108.289 81.202,108.398 81.990,108.059 82.702 C 107.608 83.647,107.400 83.580,107.400 82.489 C 107.400 81.587,107.395 81.581,106.955 81.889 C 106.696 82.071,106.091 82.200,105.500 82.200 C 104.907 82.200,104.305 82.329,104.042 82.513 C 103.337 83.007,102.802 82.717,102.792 81.837 L 102.784 81.100 102.466 81.700 C 102.290 82.030,102.120 82.331,102.087 82.370 C 102.054 82.408,101.718 82.338,101.340 82.213 C 100.753 82.019,96.408 81.205,95.940 81.201 C 95.692 81.199,95.200 82.517,95.200 83.182 C 95.200 83.509,95.110 83.832,95.000 83.900 C 94.890 83.968,94.800 84.284,94.800 84.602 C 94.800 86.390,93.798 86.818,92.472 85.596 L 91.550 84.746 90.125 84.862 C 89.120 84.944,88.233 85.184,87.113 85.678 C 85.289 86.482,85.281 86.481,85.096 85.349 C 85.020 84.882,84.780 84.306,84.562 84.069 C 84.097 83.563,84.194 83.302,85.432 81.736 C 86.164 80.809,86.429 80.000,86.000 80.000 C 85.695 80.000,85.109 80.652,84.599 81.560 L 84.139 82.378 83.781 81.639 C 83.584 81.233,83.241 80.180,83.020 79.300 C 82.738 78.179,82.473 77.580,82.137 77.300 C 81.861 77.070,81.559 76.499,81.428 75.958 C 81.301 75.439,80.627 74.134,79.929 73.058 C 77.906 69.937,78.000 70.256,78.000 66.535 C 78.000 64.301,77.914 63.002,77.731 62.475 C 77.583 62.049,77.301 60.665,77.104 59.400 C 76.908 58.135,76.674 57.019,76.585 56.921 C 76.150 56.442,76.236 58.071,76.828 61.511 C 77.293 64.213,77.489 66.017,77.514 67.800 C 77.553 70.681,78.567 78.379,78.972 78.866 C 79.328 79.295,79.526 80.800,79.226 80.800 C 78.953 80.800,78.922 81.528,79.188 81.693 C 79.292 81.757,79.437 82.213,79.512 82.707 C 79.586 83.201,79.726 83.654,79.823 83.714 C 80.065 83.864,80.047 84.947,79.800 85.100 C 79.687 85.170,79.600 85.009,79.600 84.733 C 79.600 84.463,79.465 84.191,79.300 84.128 C 79.083 84.045,79.000 84.150,79.000 84.506 C 79.000 84.778,79.090 85.000,79.200 85.000 C 79.462 85.000,79.457 85.919,79.193 86.413 C 79.079 86.626,78.800 86.800,78.572 86.800 C 78.344 86.800,77.985 87.020,77.774 87.288 C 77.562 87.557,77.212 87.833,76.995 87.902 C 76.778 87.971,76.600 88.196,76.600 88.402 C 76.600 88.897,76.246 89.094,75.475 89.028 C 75.009 88.987,74.664 89.132,74.154 89.579 C 72.745 90.817,72.000 90.749,72.000 89.384 C 72.000 88.444,71.637 88.154,70.562 88.235 C 69.752 88.296,69.696 88.267,69.637 87.750 C 69.592 87.361,69.460 87.200,69.187 87.200 C 68.730 87.200,68.686 87.542,69.084 87.984 C 70.095 89.106,68.725 91.000,66.904 91.000 C 65.892 91.000,65.896 90.993,66.294 92.100 C 66.453 92.540,66.586 93.283,66.591 93.750 C 66.597 94.352,66.684 94.600,66.888 94.600 C 67.077 94.600,67.224 94.921,67.317 95.541 C 67.394 96.059,67.616 96.622,67.808 96.791 C 68.179 97.118,69.655 100.912,69.971 102.350 C 70.170 103.259,69.908 103.512,69.400 102.900 C 68.988 102.403,68.661 102.556,68.321 103.405 C 67.632 105.128,66.355 104.832,63.878 102.374 C 62.986 101.489,62.041 100.658,61.778 100.527 C 60.713 99.995,59.570 95.274,60.055 93.404 C 60.257 92.624,61.359 91.000,61.686 91.000 C 62.186 91.000,62.877 88.416,62.491 87.990 C 61.848 87.280,61.092 87.492,59.175 88.918 L 57.405 90.237 56.477 89.718 C 54.899 88.837,54.770 88.980,55.330 90.995 C 55.641 92.110,55.640 92.239,55.311 93.098 C 55.119 93.601,55.011 94.140,55.071 94.296 C 55.347 95.017,54.283 98.841,53.500 99.942 C 52.843 100.865,52.077 101.075,51.574 100.469 C 51.424 100.287,50.580 99.666,49.700 99.089 C 47.604 97.714,46.982 97.081,46.506 95.832 C 46.228 95.104,46.003 94.800,45.743 94.800 C 45.159 94.800,44.629 94.436,44.307 93.813 C 43.777 92.788,43.000 92.237,43.000 92.885 C 43.000 93.043,43.208 93.335,43.462 93.535 C 43.716 93.736,44.248 94.382,44.645 94.972 C 45.041 95.561,45.634 96.207,45.963 96.406 C 46.560 96.770,50.200 101.655,50.200 102.093 C 50.200 102.221,50.468 102.582,50.796 102.896 C 51.263 103.344,51.343 103.527,51.164 103.743 C 50.987 103.957,51.032 104.085,51.371 104.322 C 52.325 104.990,52.963 107.000,52.221 107.000 C 52.013 107.000,51.789 107.141,51.723 107.312 C 51.616 107.591,51.539 107.587,51.008 107.273 C 50.287 106.847,50.105 106.972,50.425 107.674 C 50.730 108.345,50.333 108.394,55.818 107.008 C 74.287 102.343,95.915 101.178,112.829 103.937 L 116.157 104.480 117.229 103.686 C 121.191 100.749,127.547 97.839,128.996 98.299 C 130.012 98.621,128.947 99.973,126.003 102.100 C 124.229 103.381,121.599 105.579,121.601 105.779 C 121.602 105.846,122.344 106.117,123.251 106.382 C 130.776 108.579,139.121 113.057,143.550 117.273 C 144.619 118.291,144.800 118.399,144.800 118.019 C 144.800 117.774,144.898 117.391,145.017 117.168 C 145.191 116.842,145.155 116.677,144.833 116.331 C 144.570 116.050,144.223 114.991,143.832 113.284 C 143.140 110.258,142.746 109.200,142.310 109.200 C 142.113 109.200,142.000 109.018,142.000 108.700 C 142.000 108.425,141.910 108.200,141.800 108.200 C 141.690 108.200,141.600 107.922,141.600 107.583 C 141.600 106.952,140.591 105.316,140.082 105.121 C 139.935 105.064,139.549 104.497,139.225 103.859 C 138.539 102.512,138.389 102.404,136.068 101.600 C 133.965 100.871,133.575 100.631,133.006 99.710 C 132.765 99.320,132.441 99.000,132.287 99.000 C 132.134 99.000,131.949 98.752,131.878 98.450 C 131.225 95.674,128.671 93.600,125.908 93.600 L 124.008 93.600 122.617 92.231 L 121.226 90.862 119.382 90.597 C 117.869 90.381,117.424 90.233,116.906 89.778 C 116.558 89.473,115.559 88.842,114.687 88.375 C 113.814 87.909,111.960 86.637,110.568 85.549 L 108.035 83.571 108.368 82.987 C 108.793 82.239,109.000 82.244,109.000 83.000 C 109.000 83.378,109.103 83.600,109.277 83.600 C 109.605 83.600,109.733 82.802,109.902 79.700 C 109.978 78.304,110.192 76.915,110.489 75.900 C 111.012 74.109,111.340 71.644,111.606 67.506 C 111.750 65.256,111.928 64.210,112.517 62.140 C 113.001 60.439,113.182 59.502,113.050 59.370 C 112.856 59.176,113.665 56.004,114.140 55.100 C 114.255 54.880,114.412 54.160,114.489 53.500 C 114.565 52.840,114.719 51.985,114.831 51.600 C 115.284 50.033,114.940 49.370,114.468 50.900 M93.664 79.200 C 93.664 79.915,93.700 80.208,93.745 79.850 C 93.789 79.493,93.789 78.908,93.745 78.550 C 93.700 78.192,93.664 78.485,93.664 79.200 M81.851 80.072 C 82.132 80.050,82.200 80.208,82.200 80.882 C 82.200 81.343,82.277 81.806,82.371 81.910 C 82.645 82.216,83.056 83.948,82.910 84.184 C 82.836 84.303,82.906 84.400,83.064 84.400 C 83.548 84.400,83.857 84.967,83.941 86.007 C 84.020 86.998,84.019 87.000,83.410 87.000 C 83.075 87.000,82.800 86.910,82.800 86.800 C 82.800 86.690,82.676 86.600,82.524 86.600 C 82.084 86.600,81.166 83.889,81.102 82.400 C 81.081 81.905,80.997 80.870,80.914 80.100 L 80.765 78.700 81.133 79.400 C 81.357 79.823,81.640 80.089,81.851 80.072 M68.400 80.462 C 68.400 80.716,68.532 81.098,68.694 81.312 C 68.967 81.673,68.988 81.641,68.994 80.850 C 68.998 80.225,68.921 80.000,68.700 80.000 C 68.520 80.000,68.400 80.185,68.400 80.462 M78.484 82.066 C 78.548 82.268,78.600 82.515,78.600 82.616 C 78.600 82.717,78.690 82.800,78.800 82.800 C 79.090 82.800,79.046 82.533,78.684 82.088 C 78.394 81.733,78.377 81.731,78.484 82.066 M126.216 83.283 C 125.967 83.548,125.795 83.929,125.834 84.130 C 125.888 84.411,126.009 84.317,126.360 83.722 C 126.903 82.803,126.842 82.617,126.216 83.283 M125.111 85.045 C 124.780 85.517,124.665 86.621,124.981 86.290 C 125.289 85.968,125.790 84.600,125.601 84.600 C 125.503 84.600,125.283 84.800,125.111 85.045 M124.539 87.079 C 124.458 87.287,124.438 87.504,124.495 87.562 C 124.678 87.744,124.838 87.445,124.762 87.066 C 124.692 86.718,124.681 86.718,124.539 87.079 M49.252 106.538 C 49.438 106.724,49.647 106.820,49.715 106.751 C 49.912 106.555,49.610 106.200,49.245 106.200 C 48.940 106.200,48.941 106.226,49.252 106.538 M84.500 106.936 C 72.678 107.698,59.034 110.696,49.745 114.574 C 42.857 117.449,42.254 117.867,40.986 120.651 C 40.669 121.347,40.324 121.399,39.000 120.954 C 37.949 120.601,37.000 120.613,37.000 120.979 C 37.000 121.396,39.393 122.049,40.599 121.961 C 41.734 121.879,41.800 121.899,41.800 122.321 C 41.800 122.979,42.005 123.400,42.326 123.400 C 42.809 123.400,43.051 124.386,42.807 125.357 C 42.615 126.119,42.638 126.291,42.999 126.799 L 43.410 127.375 42.792 128.078 C 42.453 128.465,41.983 128.842,41.749 128.916 C 41.184 129.096,40.714 129.675,40.095 130.954 L 39.585 132.008 38.683 131.480 C 38.188 131.189,37.746 130.987,37.702 131.031 C 37.532 131.202,37.935 131.564,38.760 131.982 C 40.241 132.733,39.991 133.970,38.345 134.032 C 37.542 134.062,37.535 134.068,38.200 134.143 C 39.310 134.269,39.483 134.687,38.862 135.746 L 38.340 136.638 38.879 138.438 L 39.418 140.237 38.695 141.119 C 37.825 142.180,36.886 142.921,36.032 143.219 C 35.407 143.437,35.035 144.800,35.600 144.800 C 35.710 144.800,35.800 144.980,35.800 145.200 C 35.800 145.428,35.933 145.600,36.110 145.600 C 36.280 145.600,36.528 145.847,36.661 146.150 C 37.129 147.218,38.041 148.600,38.277 148.600 C 38.632 148.600,42.059 150.583,42.350 150.956 C 42.487 151.132,42.600 151.529,42.600 151.838 C 42.600 152.147,42.696 152.400,42.814 152.400 C 42.932 152.400,43.420 152.670,43.900 153.000 C 44.380 153.330,44.884 153.600,45.020 153.600 C 45.157 153.600,45.431 153.747,45.630 153.927 C 46.057 154.314,48.265 152.335,50.458 149.600 L 51.661 148.100 50.425 147.980 C 49.511 147.891,49.059 147.737,48.686 147.387 C 48.261 146.988,48.123 146.952,47.794 147.157 C 46.999 147.654,46.200 147.471,46.200 146.794 C 46.200 145.961,46.697 145.815,47.229 146.492 C 47.718 147.113,48.181 146.911,47.819 146.235 C 47.515 145.668,47.496 145.694,48.523 145.302 C 49.103 145.080,49.493 145.023,49.573 145.148 C 49.643 145.257,50.105 145.549,50.600 145.796 C 51.095 146.043,51.691 146.420,51.925 146.634 L 52.349 147.022 53.475 144.708 C 54.094 143.436,54.600 142.267,54.600 142.112 C 54.600 141.956,54.842 141.639,55.137 141.407 C 56.782 140.113,56.902 144.263,55.345 148.583 C 54.206 151.744,51.139 155.481,48.401 157.044 C 47.416 157.607,47.410 157.509,48.527 159.107 C 49.453 160.431,49.540 160.477,50.440 160.105 C 50.669 160.010,50.928 160.130,51.240 160.475 C 52.362 161.719,52.883 162.103,53.762 162.335 C 55.406 162.769,56.256 162.672,57.573 161.900 C 59.872 160.553,61.823 161.553,60.898 163.605 C 60.608 164.248,60.574 164.688,60.693 166.278 C 60.858 168.476,60.903 168.374,59.000 170.098 C 57.451 171.502,57.003 172.116,57.001 172.839 C 57.001 173.136,56.685 173.916,56.300 174.573 C 55.915 175.230,55.600 175.837,55.600 175.923 C 55.600 176.008,55.915 175.773,56.300 175.400 C 57.224 174.505,57.202 174.975,56.272 176.004 C 55.799 176.528,55.429 176.773,55.213 176.704 C 54.715 176.546,51.600 180.112,51.600 180.840 C 51.600 180.989,51.291 181.756,50.914 182.544 C 50.512 183.382,50.315 184.005,50.439 184.046 C 50.770 184.157,48.878 186.304,46.560 188.450 C 44.585 190.278,41.460 194.726,41.865 195.132 C 42.048 195.315,42.789 194.709,42.999 194.206 C 43.115 193.927,44.288 192.718,45.606 191.518 C 47.718 189.594,48.363 188.834,51.036 185.118 C 52.705 182.798,54.103 180.858,54.144 180.808 C 54.185 180.757,54.393 180.824,54.606 180.958 C 55.533 181.536,56.298 181.276,57.470 179.980 C 58.647 178.679,58.805 178.645,59.203 179.606 C 59.570 180.493,59.181 181.696,58.396 182.102 C 57.724 182.449,57.435 182.949,56.815 184.837 C 56.442 185.973,56.295 186.191,55.834 186.293 C 54.985 186.479,53.570 188.924,52.997 191.194 C 52.901 191.576,52.855 191.922,52.895 191.962 C 53.049 192.116,56.151 188.023,56.285 187.490 C 56.899 185.044,59.438 183.912,60.289 185.705 C 60.802 186.785,60.870 186.739,62.851 183.951 C 68.011 176.694,71.862 170.082,78.608 156.900 C 88.972 136.648,98.234 122.887,109.383 111.180 C 111.510 108.946,112.191 108.113,111.983 108.001 C 111.631 107.811,106.464 107.260,102.600 107.000 C 99.983 106.823,86.966 106.778,84.500 106.936 M118.560 109.550 C 116.394 112.061,108.344 125.204,101.502 137.400 C 94.370 150.113,88.384 160.414,84.265 167.065 C 83.459 168.366,82.800 169.482,82.800 169.546 C 82.800 169.735,88.888 169.419,91.700 169.085 C 114.325 166.393,134.426 153.661,140.595 138.114 C 145.858 124.851,138.376 114.088,120.769 109.592 C 118.904 109.116,118.934 109.116,118.560 109.550 M150.088 120.886 C 149.734 121.146,149.730 121.183,150.038 121.303 C 150.555 121.503,151.088 121.335,151.162 120.948 C 151.246 120.515,150.639 120.480,150.088 120.886 M147.950 121.343 C 147.334 121.437,147.317 121.470,147.604 122.008 C 147.804 122.382,147.830 122.380,148.704 121.955 C 150.069 121.292,149.789 121.065,147.950 121.343 M20.200 121.700 C 20.200 121.865,20.377 122.000,20.593 122.000 C 20.809 122.000,21.081 122.177,21.196 122.393 C 21.460 122.887,22.919 123.361,23.226 123.054 C 23.377 122.903,23.272 122.804,22.863 122.714 C 22.547 122.644,21.885 122.321,21.394 121.995 C 20.378 121.321,20.200 121.277,20.200 121.700 M150.310 128.181 C 150.552 128.411,153.383 129.200,153.967 129.200 C 154.209 129.200,155.214 129.605,156.200 130.100 C 158.149 131.079,158.667 131.200,158.563 130.650 C 158.519 130.423,158.216 130.243,157.698 130.137 C 157.259 130.047,156.360 129.693,155.700 129.351 C 154.163 128.553,149.677 127.579,150.310 128.181 M29.357 128.748 C 28.081 128.828,27.491 129.364,25.631 132.139 C 24.546 133.757,24.655 133.973,26.226 133.319 C 26.597 133.165,27.325 132.975,27.844 132.897 C 28.680 132.773,29.650 132.200,29.024 132.200 C 28.304 132.200,29.112 130.715,29.945 130.507 C 30.884 130.273,31.820 129.759,31.734 129.523 C 31.689 129.401,31.789 129.143,31.957 128.950 C 32.291 128.566,32.266 128.564,29.357 128.748 M150.484 129.506 C 152.893 139.105,141.322 154.726,125.474 163.269 C 114.656 169.100,101.344 172.247,86.249 172.541 L 80.597 172.651 78.449 175.673 C 75.923 179.225,71.824 184.503,69.469 187.237 C 68.551 188.303,67.800 189.266,67.800 189.379 C 67.800 190.232,72.302 191.798,74.760 191.799 C 75.891 191.800,76.657 192.106,77.829 193.027 C 78.711 193.720,79.059 193.744,79.455 193.140 C 80.302 191.848,87.248 190.728,87.487 191.845 C 87.817 193.388,87.976 196.512,87.796 197.928 C 87.572 199.701,87.725 201.555,88.069 201.211 C 88.198 201.082,88.328 199.428,88.398 197.049 C 88.501 193.514,88.562 192.992,88.971 192.074 C 89.223 191.510,89.411 190.925,89.391 190.774 C 89.305 190.159,89.436 189.982,90.204 189.675 C 90.646 189.498,91.186 189.127,91.403 188.851 C 92.595 187.335,96.299 190.324,97.704 193.935 L 98.263 195.370 100.081 196.188 C 101.408 196.785,102.161 197.005,102.864 197.003 C 103.458 197.001,103.944 197.115,104.129 197.300 C 104.322 197.493,104.816 197.600,105.514 197.600 C 106.313 197.600,106.700 197.700,106.979 197.979 C 107.351 198.351,107.360 198.349,107.474 197.829 C 107.712 196.736,107.802 196.701,110.395 196.700 C 112.514 196.700,112.818 196.742,112.916 197.050 C 112.977 197.243,113.166 197.400,113.335 197.400 C 113.523 197.400,113.599 197.286,113.530 197.107 C 113.263 196.411,114.779 195.200,115.916 195.200 C 116.774 195.200,117.357 195.010,119.099 194.163 C 120.446 193.509,121.281 193.204,121.366 193.337 C 122.768 195.531,125.551 199.383,125.708 199.347 C 125.822 199.321,126.182 199.594,126.508 199.954 C 126.834 200.313,127.392 200.690,127.750 200.790 C 128.526 201.007,128.571 200.892,127.912 200.373 C 127.643 200.162,127.134 199.474,126.781 198.845 C 126.428 198.215,125.723 197.205,125.214 196.600 C 124.705 195.995,124.129 195.248,123.934 194.941 C 123.739 194.634,123.375 194.304,123.124 194.209 C 120.909 193.367,122.988 190.736,125.350 191.394 C 126.400 191.686,126.758 192.034,128.286 194.250 C 129.025 195.322,129.668 196.200,129.715 196.200 C 130.009 196.200,129.678 195.478,128.900 194.421 C 128.405 193.749,127.996 193.042,127.991 192.849 C 127.987 192.657,127.631 192.099,127.200 191.608 C 126.769 191.118,126.456 190.678,126.503 190.630 C 126.661 190.473,128.052 191.655,128.150 192.031 C 128.203 192.234,128.326 192.400,128.423 192.400 C 128.520 192.400,128.600 192.574,128.600 192.786 C 128.600 192.999,128.870 193.365,129.200 193.600 L 129.800 194.027 129.800 192.897 C 129.800 191.835,129.729 191.670,128.615 190.134 L 127.430 188.500 127.715 187.406 C 127.872 186.805,128.003 185.995,128.007 185.606 C 128.018 184.447,129.411 183.408,129.898 184.197 C 129.965 184.305,130.308 184.469,130.660 184.562 L 131.300 184.730 131.840 183.415 C 132.487 181.837,132.510 181.562,132.034 181.131 C 131.377 180.536,130.000 180.844,130.000 181.585 C 130.000 181.988,129.218 183.052,129.207 182.663 C 129.203 182.533,129.624 181.324,130.141 179.977 C 130.789 178.293,131.007 177.502,130.841 177.447 C 130.542 177.347,130.504 174.083,130.800 173.900 C 130.910 173.832,131.000 173.146,131.000 172.375 C 131.000 171.604,131.093 170.800,131.207 170.587 C 131.350 170.320,131.350 170.200,131.207 170.200 C 130.609 170.200,131.103 168.708,132.264 167.012 C 132.642 166.460,132.784 166.095,132.641 166.047 C 132.477 165.992,132.495 165.841,132.704 165.522 C 132.865 165.276,133.056 164.630,133.127 164.087 C 133.320 162.617,133.695 162.031,134.728 161.588 C 136.118 160.992,136.749 161.339,137.659 163.200 C 138.983 165.905,145.313 164.797,149.865 161.064 C 150.176 160.809,150.604 160.600,150.815 160.600 C 151.246 160.600,151.335 160.288,150.950 160.132 C 150.788 160.066,150.770 159.972,150.900 159.865 C 151.434 159.424,153.700 154.102,153.986 152.618 C 154.249 151.252,155.116 149.484,156.007 148.500 C 156.305 148.170,156.607 147.655,156.677 147.355 C 157.311 144.654,163.547 140.207,164.658 141.663 C 164.791 141.837,165.260 142.007,165.700 142.040 C 166.944 142.133,168.162 145.247,167.320 146.178 C 167.122 146.396,167.014 146.660,167.078 146.765 C 167.252 147.046,166.504 147.189,164.600 147.239 C 163.255 147.274,163.484 147.305,165.700 147.391 C 168.361 147.495,168.510 147.522,168.697 147.950 C 168.934 148.490,169.233 148.522,169.639 148.050 C 170.324 147.252,170.252 147.052,168.084 143.689 C 165.666 139.938,165.665 139.932,167.355 139.239 C 168.450 138.791,168.574 138.688,168.322 138.436 C 168.070 138.184,167.944 138.202,167.343 138.574 C 166.028 139.386,164.800 138.831,164.800 137.424 C 164.800 137.076,164.709 137.028,164.235 137.123 C 163.533 137.263,162.069 136.386,161.081 135.231 C 160.708 134.796,159.923 134.169,159.336 133.838 C 158.749 133.507,158.119 133.007,157.936 132.727 C 157.723 132.401,157.335 132.168,156.858 132.079 C 156.448 132.002,155.633 131.632,155.047 131.257 C 154.461 130.882,153.629 130.451,153.198 130.299 C 152.767 130.147,152.164 129.845,151.857 129.628 C 150.839 128.908,150.322 128.862,150.484 129.506 M165.600 146.093 C 165.600 146.267,165.774 146.400,166.000 146.400 C 166.220 146.400,166.400 146.358,166.400 146.307 C 166.400 146.256,166.220 146.118,166.000 146.000 C 165.681 145.829,165.600 145.848,165.600 146.093 M170.400 148.685 C 170.400 148.871,170.571 149.000,170.817 149.000 C 171.304 149.000,171.235 148.533,170.733 148.435 C 170.536 148.397,170.400 148.499,170.400 148.685 M134.200 168.079 C 134.200 168.232,134.071 168.407,133.914 168.467 C 133.039 168.803,131.898 172.101,131.964 174.104 L 132.028 176.036 132.536 175.909 C 133.915 175.563,134.842 174.906,136.100 173.385 L 137.400 171.814 137.400 170.486 C 137.400 169.087,137.243 168.830,135.917 168.057 C 135.329 167.714,134.200 167.729,134.200 168.079 M128.744 184.723 C 128.357 185.109,128.675 185.553,129.697 186.055 L 130.794 186.593 130.916 186.108 C 130.983 185.841,130.975 185.522,130.899 185.399 C 130.656 185.005,128.985 184.481,128.744 184.723 M51.533 185.533 C 51.315 185.752,51.379 186.837,51.601 186.699 C 52.099 186.391,52.433 185.400,52.038 185.400 C 51.834 185.400,51.607 185.460,51.533 185.533 M48.145 189.600 C 47.642 189.996,46.655 192.400,46.996 192.400 C 47.302 192.400,49.200 189.974,49.200 189.583 C 49.200 189.089,48.787 189.096,48.145 189.600 M45.350 193.886 C 44.983 194.157,44.875 194.600,45.176 194.600 C 45.429 194.600,45.850 194.047,45.769 193.821 C 45.729 193.710,45.552 193.737,45.350 193.886 M40.004 197.095 C 39.865 197.263,39.519 197.400,39.236 197.400 C 38.835 197.400,38.773 197.453,38.960 197.640 C 39.092 197.772,39.200 198.049,39.200 198.257 C 39.200 198.827,39.627 198.566,40.061 197.729 C 40.468 196.944,40.435 196.576,40.004 197.095 M128.807 197.528 C 128.798 197.827,129.534 198.731,129.674 198.592 C 129.734 198.533,129.565 198.218,129.298 197.892 C 129.032 197.566,128.811 197.403,128.807 197.528 M99.840 199.040 C 99.708 199.172,99.600 199.487,99.600 199.740 C 99.600 200.393,100.350 200.369,100.515 199.711 C 100.711 198.930,100.330 198.550,99.840 199.040 M119.066 199.684 C 119.127 199.842,119.237 200.294,119.311 200.688 C 119.385 201.082,119.539 201.462,119.654 201.533 C 119.789 201.617,119.817 201.492,119.734 201.181 C 119.663 200.917,119.604 200.462,119.603 200.171 C 119.601 199.872,119.460 199.589,119.278 199.519 C 119.052 199.433,118.989 199.482,119.066 199.684 M130.203 199.938 C 130.201 200.179,130.290 200.432,130.400 200.500 C 130.655 200.657,130.655 200.194,130.400 199.800 C 130.242 199.556,130.206 199.582,130.203 199.938 M101.050 200.545 C 100.251 200.644,100.085 201.400,100.862 201.400 C 101.117 201.400,101.526 201.588,101.773 201.817 C 102.319 202.327,102.800 202.186,102.800 201.518 C 102.800 201.085,102.116 200.338,101.805 200.432 C 101.747 200.450,101.408 200.500,101.050 200.545 M86.600 201.885 C 86.600 202.046,87.776 202.557,87.888 202.445 C 88.224 202.109,87.943 201.800,87.300 201.800 C 86.915 201.800,86.600 201.838,86.600 201.885 M131.516 202.200 C 133.316 205.409,137.000 210.432,137.000 209.678 C 137.000 209.495,132.630 203.351,131.966 202.600 C 131.626 202.215,131.423 202.035,131.516 202.200 M103.429 203.100 C 103.475 203.347,103.695 203.527,104.002 203.569 C 104.276 203.607,104.572 203.765,104.660 203.919 C 105.009 204.531,105.800 203.972,105.800 203.113 C 105.800 202.715,105.326 202.708,105.000 203.100 C 104.670 203.497,104.220 203.479,103.743 203.050 C 103.370 202.715,103.357 202.717,103.429 203.100 M87.321 203.318 C 87.254 203.491,87.209 204.188,87.221 204.866 L 87.242 206.100 87.506 205.300 C 87.930 204.012,87.759 202.176,87.321 203.318 M136.413 206.600 C 136.413 206.765,136.545 207.075,136.706 207.288 C 136.928 207.581,137.000 207.603,137.000 207.376 C 137.000 207.211,136.868 206.902,136.706 206.688 C 136.485 206.395,136.413 206.373,136.413 206.600 M137.030 210.600 C 137.145 210.930,137.275 211.200,137.320 211.200 C 137.364 211.200,137.400 210.930,137.400 210.600 C 137.400 210.210,137.299 210.000,137.110 210.000 C 136.875 210.000,136.860 210.113,137.030 210.600 M138.400 212.259 C 138.400 212.715,138.617 213.200,138.821 213.200 C 139.113 213.200,139.024 212.469,138.700 212.200 C 138.455 211.997,138.400 212.008,138.400 212.259 " stroke="none" fill="#e4048c" fill-rule="evenodd"></path><path id="path1" d="M125.100 99.431 C 122.420 100.495,119.380 102.188,117.328 103.760 L 116.156 104.657 113.128 104.130 C 89.161 99.954,54.291 104.573,35.400 114.426 C 20.268 122.319,12.980 133.966,15.391 146.405 C 18.603 162.970,43.910 166.540,53.594 151.794 C 55.530 148.845,56.985 143.023,56.117 141.698 C 55.547 140.828,55.246 141.056,54.401 143.000 C 53.401 145.299,52.690 146.642,52.131 147.288 C 51.852 147.611,51.659 147.934,51.704 148.007 C 51.920 148.357,46.915 153.873,46.165 154.111 C 45.978 154.171,45.235 154.614,44.515 155.098 C 35.630 161.055,25.662 158.295,22.501 149.002 C 20.500 143.119,22.969 133.997,27.876 129.145 C 28.457 128.570,29.368 127.607,29.900 127.005 C 31.107 125.640,34.352 122.776,35.750 121.844 C 36.328 121.459,36.800 121.073,36.800 120.987 C 36.800 120.901,37.093 120.731,37.450 120.608 C 37.807 120.485,39.180 119.759,40.500 118.994 C 52.164 112.235,67.634 107.980,84.900 106.782 C 91.563 106.320,104.188 106.746,110.869 107.658 L 112.638 107.900 109.169 111.575 C 98.010 123.396,89.402 136.192,78.948 156.500 C 71.759 170.465,68.134 176.708,63.034 183.900 C 62.098 185.220,61.135 186.480,60.893 186.700 C 60.651 186.920,59.817 187.865,59.039 188.800 C 48.286 201.720,31.775 208.971,21.124 205.451 C 15.430 203.569,12.713 197.603,15.224 192.495 C 17.937 186.976,24.427 184.880,31.647 187.193 C 33.842 187.896,35.480 188.001,35.691 187.451 C 36.354 185.723,25.325 183.487,19.578 184.183 C 6.704 185.743,1.336 198.666,10.523 205.976 C 17.996 211.922,35.550 211.927,47.418 205.988 C 54.239 202.573,64.139 194.470,67.400 189.631 C 67.675 189.223,68.671 187.992,69.613 186.895 C 71.992 184.123,75.096 180.126,78.070 176.005 L 80.591 172.510 85.446 172.468 C 95.668 172.377,108.099 170.289,116.400 167.268 C 133.152 161.171,147.728 147.482,150.224 135.500 C 150.509 134.136,150.496 128.300,150.208 128.300 C 150.189 128.300,150.135 128.013,150.090 127.663 C 149.923 126.387,148.410 123.009,147.662 122.241 C 147.524 122.098,147.252 121.648,147.059 121.241 C 146.672 120.427,143.896 117.613,141.691 115.800 C 137.442 112.307,130.248 108.651,123.600 106.606 C 122.445 106.251,121.467 105.929,121.427 105.891 C 121.281 105.751,123.815 103.553,125.518 102.343 C 130.690 98.668,130.493 97.292,125.100 99.431 M120.800 109.479 C 144.738 114.960,149.431 134.162,131.096 151.609 C 119.599 162.549,103.696 168.866,85.519 169.713 C 82.073 169.873,82.241 170.086,83.821 167.570 C 87.811 161.216,93.468 151.474,102.500 135.400 C 110.465 121.226,118.322 108.833,119.184 109.088 C 119.358 109.139,120.085 109.315,120.800 109.479 M274.694 126.470 C 269.180 129.118,263.254 137.738,256.285 153.248 L 255.500 154.996 251.365 154.998 L 247.229 155.000 246.815 155.527 C 246.287 156.198,246.261 157.413,246.766 157.869 C 247.076 158.150,247.651 158.200,250.566 158.200 C 252.455 158.200,254.000 158.246,254.000 158.303 C 254.000 158.360,253.376 159.958,252.613 161.853 C 249.982 168.394,247.992 174.044,246.484 179.259 C 245.338 183.223,245.168 183.625,242.947 187.600 C 236.684 198.812,230.371 204.663,227.565 201.857 C 224.628 198.920,229.692 185.346,241.353 164.900 C 243.198 161.666,243.201 161.682,240.820 161.861 C 232.723 162.468,218.886 172.266,208.846 184.503 C 207.629 185.986,212.605 176.485,215.865 171.100 C 218.383 166.942,222.062 162.198,222.999 161.900 C 223.769 161.656,223.389 161.500,221.950 161.468 C 221.152 161.451,219.887 161.293,219.138 161.118 C 213.874 159.889,212.662 161.244,203.736 178.335 C 193.486 197.961,190.122 202.266,185.054 202.237 C 181.711 202.218,180.620 199.645,181.887 194.769 C 182.210 193.528,184.350 188.295,188.216 179.297 C 191.428 171.819,194.267 165.205,194.524 164.600 C 195.890 161.381,194.715 160.683,188.231 160.861 C 183.562 160.988,183.813 160.912,184.494 161.991 C 186.050 164.456,186.025 164.588,182.205 174.280 C 178.877 182.724,178.347 183.910,176.344 187.400 C 172.318 194.412,167.612 200.384,165.185 201.559 C 163.394 202.426,161.837 201.879,161.771 200.359 C 161.604 196.514,162.357 192.510,164.074 188.100 C 166.194 182.657,172.106 171.885,173.897 170.202 C 174.647 169.498,174.580 169.462,172.250 169.324 C 171.067 169.254,169.470 169.144,168.700 169.080 C 165.526 168.817,163.721 170.256,161.012 175.212 C 150.675 194.122,144.559 201.546,139.280 201.591 C 131.475 201.658,138.087 183.282,150.802 169.569 C 158.675 161.078,166.559 159.099,169.415 164.899 C 170.167 166.428,171.108 166.710,172.109 165.709 C 173.835 163.983,170.866 160.549,166.198 158.871 C 162.618 157.584,153.579 158.592,151.384 160.522 C 151.211 160.675,150.939 160.800,150.780 160.800 C 150.621 160.800,149.728 161.301,148.796 161.913 C 147.863 162.525,146.785 163.191,146.400 163.393 C 142.387 165.502,134.409 176.126,132.472 181.940 C 132.186 182.798,131.780 183.860,131.569 184.300 C 131.358 184.740,131.147 185.402,131.099 185.772 C 131.052 186.141,130.930 186.546,130.829 186.672 C 130.588 186.972,130.340 188.148,130.360 188.894 C 130.369 189.221,130.280 189.603,130.164 189.744 C 130.047 189.884,129.923 190.856,129.888 191.902 C 129.854 192.949,129.771 193.978,129.704 194.188 C 129.216 195.726,130.350 200.216,131.706 202.118 C 136.682 209.097,144.102 205.727,153.334 192.294 C 154.415 190.721,155.319 189.453,155.343 189.477 C 155.366 189.500,155.208 190.370,154.990 191.409 C 153.774 197.226,154.484 201.375,157.105 203.770 C 161.411 207.705,166.997 205.370,172.855 197.187 C 173.760 195.923,174.662 194.666,174.859 194.394 L 175.218 193.900 175.123 194.912 C 174.195 204.765,184.341 208.752,191.950 201.524 C 193.035 200.494,193.030 200.521,191.600 203.533 C 190.268 206.338,190.217 206.512,190.820 206.189 C 191.051 206.065,192.612 205.844,194.289 205.698 C 198.907 205.294,198.907 205.294,201.506 200.400 C 206.922 190.199,212.276 182.921,218.756 176.949 C 224.195 171.937,226.343 170.740,228.186 171.693 C 229.542 172.394,229.209 173.505,226.151 178.478 C 217.257 192.942,216.572 202.902,224.300 205.384 C 230.683 207.434,236.738 203.244,243.005 192.441 L 243.751 191.156 243.725 194.028 C 243.679 199.257,245.046 202.252,248.416 204.307 C 254.094 207.769,261.354 204.367,267.420 195.400 L 268.300 194.100 268.418 196.300 C 268.735 202.242,271.662 205.209,277.192 205.196 C 281.716 205.185,286.633 201.448,290.961 194.732 L 292.100 192.963 292.231 194.654 C 292.887 203.096,299.572 207.402,306.722 203.989 C 311.352 201.780,317.858 194.066,323.224 184.423 C 324.675 181.815,324.705 181.891,324.535 187.682 C 324.340 194.333,323.298 200.726,321.479 206.425 L 321.184 207.350 319.042 208.169 C 317.864 208.619,313.750 210.059,309.900 211.368 C 284.587 219.978,274.745 227.159,274.770 237.000 C 274.785 242.672,277.273 245.617,282.970 246.707 C 298.787 249.734,318.224 233.896,328.512 209.600 L 329.571 207.100 331.190 206.164 C 336.474 203.111,340.513 198.890,343.402 193.404 C 343.753 192.737,343.966 193.246,343.986 194.800 C 344.118 205.107,352.929 208.382,363.271 201.968 L 364.843 200.993 365.616 201.690 C 369.190 204.920,375.610 205.024,380.200 201.927 C 384.614 198.949,391.053 188.882,394.273 179.922 C 394.520 179.235,393.882 178.568,393.046 178.639 L 392.316 178.700 389.301 184.700 C 385.363 192.536,383.811 194.820,379.835 198.637 C 375.685 202.620,371.359 203.049,368.301 199.781 L 367.364 198.778 369.038 197.039 C 383.300 182.220,385.843 161.099,373.600 159.157 C 365.810 157.921,355.411 165.267,349.051 176.500 C 348.080 178.216,345.200 184.709,345.200 185.183 C 345.200 186.558,340.064 194.316,337.469 196.862 C 335.345 198.946,331.337 202.251,331.241 201.999 C 331.208 201.914,331.405 200.957,331.678 199.872 C 333.960 190.797,334.429 181.378,333.032 172.654 C 332.722 170.713,332.649 170.507,332.294 170.567 C 332.077 170.604,331.360 170.726,330.700 170.838 C 326.660 171.524,325.628 172.422,324.189 176.501 C 321.458 184.236,314.286 194.604,308.831 198.702 C 304.291 202.112,301.153 202.029,299.322 198.450 C 295.740 191.448,310.521 168.133,321.859 162.901 C 327.417 160.336,330.785 161.353,332.787 166.200 C 333.657 168.306,334.582 168.855,335.475 167.794 C 336.998 165.983,336.556 164.004,334.250 162.304 C 327.229 157.129,318.090 157.178,310.100 162.435 C 304.218 166.304,297.305 175.464,294.011 183.750 C 292.663 187.141,288.165 194.538,285.259 198.142 C 280.755 203.729,274.599 203.755,274.601 198.187 C 274.601 195.547,275.248 193.783,281.903 178.263 C 288.610 162.621,288.654 162.496,287.719 161.618 C 286.871 160.821,283.899 160.584,279.051 160.929 L 277.240 161.057 278.035 162.567 C 279.191 164.762,279.173 164.848,275.504 174.158 C 270.873 185.910,265.780 194.408,260.633 198.970 C 257.537 201.716,253.760 202.421,252.073 200.569 C 250.350 198.679,250.419 196.471,252.499 187.000 L 254.058 179.900 257.384 176.500 C 262.481 171.289,265.350 167.727,269.345 161.650 L 271.612 158.200 275.592 158.200 L 279.571 158.200 279.985 157.673 C 280.433 157.104,280.532 156.020,280.193 155.387 C 280.001 155.028,279.744 155.000,276.693 155.000 C 274.882 155.000,273.400 154.969,273.400 154.930 C 273.400 154.892,274.653 152.304,276.185 149.180 C 280.401 140.579,281.768 136.858,282.095 133.095 C 282.599 127.281,279.249 124.282,274.694 126.470 M278.609 131.416 C 279.907 133.842,277.515 141.159,272.070 151.416 L 270.167 155.000 266.992 155.000 L 263.818 155.000 264.435 153.550 C 270.857 138.457,277.132 128.658,278.609 131.416 M193.752 144.989 C 190.874 146.114,188.988 149.244,189.584 151.906 C 190.964 158.075,200.600 155.636,200.600 149.117 C 200.600 145.807,197.083 143.687,193.752 144.989 M286.966 144.984 C 283.739 146.246,281.801 150.277,283.154 152.914 C 285.195 156.891,291.103 156.180,293.230 151.700 C 295.294 147.352,291.450 143.230,286.966 144.984 M268.200 158.293 C 268.200 158.472,265.499 162.522,263.727 165.000 C 261.905 167.548,258.680 171.538,256.695 173.700 C 255.365 175.149,255.118 175.900,259.230 165.984 L 262.457 158.200 265.328 158.200 C 266.908 158.200,268.200 158.242,268.200 158.293 M375.419 163.865 C 380.073 166.320,378.013 178.047,370.829 189.992 L 369.812 191.683 369.856 190.677 C 370.011 187.143,364.665 185.340,362.424 188.170 C 360.691 190.358,360.839 195.223,362.725 198.074 L 363.255 198.874 362.677 199.343 C 354.973 205.602,349.865 201.966,352.116 191.824 C 355.628 175.996,368.695 160.319,375.419 163.865 M319.073 213.150 C 317.282 217.092,313.609 223.064,310.926 226.400 C 304.193 234.770,300.700 237.859,294.300 241.106 C 282.949 246.864,275.537 244.655,278.176 236.300 C 281.185 226.770,289.163 221.922,318.100 212.041 C 319.852 211.443,319.850 211.440,319.073 213.150 " stroke="none" fill="#fcfbfc" fill-rule="evenodd"></path><path id="path2" d="M92.459 102.549 C 93.317 102.586,94.667 102.586,95.459 102.548 C 96.252 102.510,95.550 102.480,93.900 102.480 C 92.250 102.480,91.602 102.511,92.459 102.549 M87.450 106.746 C 87.863 106.789,88.538 106.789,88.950 106.746 C 89.363 106.703,89.025 106.667,88.200 106.667 C 87.375 106.667,87.038 106.703,87.450 106.746 M107.291 113.450 L 106.500 114.300 107.350 113.509 C 108.140 112.774,108.292 112.600,108.141 112.600 C 108.108 112.600,107.725 112.983,107.291 113.450 " stroke="none" fill="#f48dcc" fill-rule="evenodd"></path><path id="path3" d="M88.755 102.547 C 89.226 102.589,89.946 102.588,90.355 102.545 C 90.765 102.502,90.380 102.468,89.500 102.469 C 88.620 102.469,88.285 102.504,88.755 102.547 M97.555 102.547 C 98.026 102.589,98.746 102.588,99.155 102.545 C 99.565 102.502,99.180 102.468,98.300 102.469 C 97.420 102.469,97.085 102.504,97.555 102.547 M91.550 106.749 C 92.678 106.785,94.523 106.785,95.650 106.749 C 96.778 106.714,95.855 106.684,93.600 106.684 C 91.345 106.684,90.423 106.714,91.550 106.749 M105.887 114.850 L 105.300 115.500 105.950 114.913 C 106.308 114.590,106.600 114.297,106.600 114.263 C 106.600 114.108,106.435 114.244,105.887 114.850 M48.291 152.050 L 47.500 152.900 48.350 152.109 C 49.140 151.374,49.292 151.200,49.141 151.200 C 49.108 151.200,48.725 151.583,48.291 152.050 M51.691 154.250 L 50.900 155.100 51.750 154.309 C 52.540 153.574,52.692 153.400,52.541 153.400 C 52.508 153.400,52.125 153.783,51.691 154.250 " stroke="none" fill="#ed5bb9" fill-rule="evenodd"></path><path id="path4" d="M144.000 117.900 C 144.373 118.285,144.723 118.600,144.778 118.600 C 144.833 118.600,144.573 118.285,144.200 117.900 C 143.827 117.515,143.477 117.200,143.422 117.200 C 143.367 117.200,143.627 117.515,144.000 117.900 M139.887 152.450 L 139.300 153.100 139.950 152.513 C 140.308 152.190,140.600 151.897,140.600 151.863 C 140.600 151.708,140.435 151.844,139.887 152.450 M83.355 169.747 C 83.826 169.789,84.546 169.788,84.955 169.745 C 85.365 169.702,84.980 169.668,84.100 169.669 C 83.220 169.669,82.885 169.704,83.355 169.747 M81.150 172.545 C 81.508 172.589,82.093 172.589,82.450 172.545 C 82.808 172.500,82.515 172.464,81.800 172.464 C 81.085 172.464,80.793 172.500,81.150 172.545 M87.152 172.541 C 87.401 172.589,87.761 172.587,87.952 172.537 C 88.144 172.487,87.940 172.448,87.500 172.450 C 87.060 172.453,86.904 172.494,87.152 172.541 " stroke="none" fill="#fcbce4" fill-rule="evenodd"></path></g></svg>