<svg id="svg" version="1.1" xmlns="http://www.w3.org/2000/svg" xmlns:xlink="http://www.w3.org/1999/xlink" width="400" height="400" viewBox="0, 0, 400,400"><g id="svgg"><path id="path0" d="M112.215 48.282 C 112.087 48.437,112.018 48.819,112.064 49.132 C 112.109 49.444,112.057 49.813,111.948 49.950 C 111.814 50.120,111.846 50.398,112.046 50.810 L 112.341 51.420 112.468 50.205 C 112.538 49.537,112.651 48.767,112.719 48.495 C 112.856 47.951,112.585 47.837,112.215 48.282 M147.229 50.065 C 146.926 50.430,145.964 52.631,146.064 52.730 C 146.269 52.935,147.800 50.445,147.800 49.906 C 147.800 49.703,147.448 49.801,147.229 50.065 M112.040 52.840 C 111.758 53.122,111.726 53.400,111.977 53.400 C 112.074 53.400,112.200 53.220,112.258 53.000 C 112.380 52.533,112.361 52.519,112.040 52.840 M112.399 53.950 C 112.273 54.583,112.089 55.415,111.991 55.800 C 111.893 56.185,111.819 57.011,111.827 57.636 C 111.835 58.261,111.780 58.871,111.705 58.992 C 111.630 59.113,111.542 60.807,111.510 62.756 C 111.463 65.596,111.347 66.832,110.926 68.977 C 110.637 70.449,110.407 71.979,110.416 72.377 L 110.431 73.100 110.800 72.100 C 111.003 71.550,111.176 70.813,111.184 70.462 C 111.193 70.111,111.280 69.774,111.378 69.713 C 111.476 69.653,111.619 68.680,111.696 67.552 C 111.772 66.423,112.055 64.617,112.324 63.538 C 112.842 61.458,112.922 59.422,112.532 58.242 C 112.368 57.749,112.375 57.486,112.557 57.195 C 112.691 56.981,112.800 56.376,112.800 55.851 C 112.800 55.327,112.883 54.609,112.984 54.257 C 113.175 53.590,113.071 52.800,112.791 52.800 C 112.701 52.800,112.525 53.317,112.399 53.950 M146.016 55.350 C 145.671 55.763,145.269 56.235,145.123 56.400 C 144.631 56.952,142.600 61.338,142.600 61.848 C 142.600 62.125,142.475 62.455,142.322 62.582 C 141.970 62.874,140.509 66.379,140.188 67.700 C 140.055 68.250,139.868 68.785,139.773 68.890 C 139.532 69.154,139.556 69.800,139.806 69.800 C 139.920 69.800,140.063 69.642,140.125 69.450 C 140.466 68.388,140.675 67.995,140.821 68.141 C 141.188 68.508,140.177 71.251,138.427 74.637 C 136.671 78.038,136.372 78.800,136.795 78.800 C 137.136 78.800,137.511 78.027,139.896 72.400 C 141.933 67.594,142.599 66.092,143.931 63.303 C 144.115 62.917,144.143 62.681,144.008 62.636 C 143.685 62.528,143.762 61.742,144.149 61.195 C 144.906 60.123,145.803 58.079,146.026 56.920 C 146.155 56.249,146.433 55.453,146.644 55.150 C 147.213 54.333,146.738 54.484,146.016 55.350 M139.357 62.750 C 138.950 63.216,138.599 63.912,138.606 64.237 C 138.615 64.662,139.800 63.233,139.800 62.797 C 139.800 62.311,139.745 62.305,139.357 62.750 M114.468 69.300 C 114.230 70.070,113.972 71.195,113.894 71.800 C 113.816 72.405,113.587 73.350,113.385 73.900 C 112.890 75.247,111.665 80.057,111.501 81.300 C 111.429 81.850,111.196 82.598,110.985 82.961 C 110.773 83.325,110.600 83.950,110.600 84.349 C 110.600 84.749,110.231 87.196,109.781 89.788 C 109.202 93.114,108.991 94.834,109.060 95.635 C 109.180 97.012,108.874 97.597,108.110 97.451 C 107.500 97.334,107.215 97.858,107.575 98.435 C 107.706 98.645,107.764 98.896,107.704 98.994 C 107.643 99.092,107.690 99.232,107.809 99.306 C 108.289 99.602,108.398 100.390,108.059 101.102 C 107.608 102.047,107.400 101.980,107.400 100.889 C 107.400 99.987,107.395 99.981,106.955 100.289 C 106.696 100.471,106.091 100.600,105.500 100.600 C 104.907 100.600,104.305 100.729,104.042 100.913 C 103.337 101.407,102.802 101.117,102.792 100.237 L 102.784 99.500 102.466 100.100 C 102.290 100.430,102.120 100.731,102.087 100.770 C 102.054 100.808,101.718 100.738,101.340 100.613 C 100.753 100.419,96.408 99.605,95.940 99.601 C 95.692 99.599,95.200 100.917,95.200 101.582 C 95.200 101.909,95.110 102.232,95.000 102.300 C 94.890 102.368,94.800 102.684,94.800 103.002 C 94.800 104.790,93.798 105.218,92.472 103.996 L 91.550 103.146 90.125 103.262 C 89.120 103.344,88.233 103.584,87.113 104.078 C 85.289 104.882,85.281 104.881,85.096 103.749 C 85.020 103.282,84.780 102.706,84.562 102.469 C 84.097 101.963,84.194 101.702,85.432 100.136 C 86.164 99.209,86.429 98.400,86.000 98.400 C 85.695 98.400,85.109 99.052,84.599 99.960 L 84.139 100.778 83.781 100.039 C 83.584 99.633,83.241 98.580,83.020 97.700 C 82.738 96.579,82.473 95.980,82.137 95.700 C 81.861 95.470,81.559 94.899,81.428 94.358 C 81.301 93.839,80.627 92.534,79.929 91.458 C 77.906 88.337,78.000 88.656,78.000 84.935 C 78.000 82.701,77.914 81.402,77.731 80.875 C 77.583 80.449,77.301 79.065,77.104 77.800 C 76.908 76.535,76.674 75.419,76.585 75.321 C 76.150 74.842,76.236 76.471,76.828 79.911 C 77.293 82.613,77.489 84.417,77.514 86.200 C 77.553 89.081,78.567 96.779,78.972 97.266 C 79.328 97.695,79.526 99.200,79.226 99.200 C 78.953 99.200,78.922 99.928,79.188 100.093 C 79.292 100.157,79.437 100.613,79.512 101.107 C 79.586 101.601,79.726 102.054,79.823 102.114 C 80.065 102.264,80.047 103.347,79.800 103.500 C 79.687 103.570,79.600 103.409,79.600 103.133 C 79.600 102.863,79.465 102.591,79.300 102.528 C 79.083 102.445,79.000 102.550,79.000 102.906 C 79.000 103.178,79.090 103.400,79.200 103.400 C 79.462 103.400,79.457 104.319,79.193 104.813 C 79.079 105.026,78.800 105.200,78.572 105.200 C 78.344 105.200,77.985 105.420,77.774 105.688 C 77.562 105.957,77.212 106.233,76.995 106.302 C 76.778 106.371,76.600 106.596,76.600 106.802 C 76.600 107.297,76.246 107.494,75.475 107.428 C 75.009 107.387,74.664 107.532,74.154 107.979 C 72.745 109.217,72.000 109.149,72.000 107.784 C 72.000 106.844,71.637 106.554,70.562 106.635 C 69.752 106.696,69.696 106.667,69.637 106.150 C 69.592 105.761,69.460 105.600,69.187 105.600 C 68.730 105.600,68.686 105.942,69.084 106.384 C 70.095 107.506,68.725 109.400,66.904 109.400 C 65.892 109.400,65.896 109.393,66.294 110.500 C 66.453 110.940,66.586 111.683,66.591 112.150 C 66.597 112.752,66.684 113.000,66.888 113.000 C 67.077 113.000,67.224 113.321,67.317 113.941 C 67.394 114.459,67.616 115.022,67.808 115.191 C 68.179 115.518,69.655 119.312,69.971 120.750 C 70.170 121.659,69.908 121.912,69.400 121.300 C 68.988 120.803,68.661 120.956,68.321 121.805 C 67.632 123.528,66.355 123.232,63.878 120.774 C 62.986 119.889,62.041 119.058,61.778 118.927 C 60.713 118.395,59.570 113.674,60.055 111.804 C 60.257 111.024,61.359 109.400,61.686 109.400 C 62.186 109.400,62.877 106.816,62.491 106.390 C 61.848 105.680,61.092 105.892,59.175 107.318 L 57.405 108.637 56.477 108.118 C 54.899 107.237,54.770 107.380,55.330 109.395 C 55.641 110.510,55.640 110.639,55.311 111.498 C 55.119 112.001,55.011 112.540,55.071 112.696 C 55.347 113.417,54.283 117.241,53.500 118.342 C 52.843 119.265,52.077 119.475,51.574 118.869 C 51.424 118.687,50.580 118.066,49.700 117.489 C 47.604 116.114,46.982 115.481,46.506 114.232 C 46.228 113.504,46.003 113.200,45.743 113.200 C 45.159 113.200,44.629 112.836,44.307 112.213 C 43.777 111.188,43.000 110.637,43.000 111.285 C 43.000 111.443,43.208 111.735,43.462 111.935 C 43.716 112.136,44.248 112.782,44.645 113.372 C 45.041 113.961,45.634 114.607,45.963 114.806 C 46.560 115.170,50.200 120.055,50.200 120.493 C 50.200 120.621,50.468 120.982,50.796 121.296 C 51.263 121.744,51.343 121.927,51.164 122.143 C 50.987 122.357,51.032 122.485,51.371 122.722 C 52.325 123.390,52.963 125.400,52.221 125.400 C 52.013 125.400,51.789 125.541,51.723 125.712 C 51.616 125.991,51.539 125.987,51.008 125.673 C 50.287 125.247,50.105 125.372,50.425 126.074 C 50.726 126.735,50.282 126.784,55.361 125.519 C 74.701 120.699,96.062 119.520,112.921 122.342 L 116.142 122.881 117.521 121.868 C 120.483 119.693,126.848 116.600,128.363 116.600 C 130.351 116.600,129.685 117.770,126.237 120.335 C 124.952 121.292,123.386 122.556,122.757 123.145 C 121.450 124.369,121.344 124.209,123.986 124.996 C 131.119 127.120,139.321 131.600,143.550 135.682 C 144.634 136.728,144.800 136.828,144.800 136.431 C 144.800 136.180,144.898 135.791,145.017 135.568 C 145.191 135.242,145.155 135.077,144.833 134.731 C 144.570 134.450,144.223 133.391,143.832 131.684 C 143.140 128.658,142.746 127.600,142.310 127.600 C 142.113 127.600,142.000 127.418,142.000 127.100 C 142.000 126.825,141.910 126.600,141.800 126.600 C 141.690 126.600,141.600 126.322,141.600 125.983 C 141.600 125.352,140.591 123.716,140.082 123.521 C 139.935 123.464,139.549 122.897,139.225 122.259 C 138.539 120.912,138.389 120.804,136.068 120.000 C 133.965 119.271,133.575 119.031,133.006 118.110 C 132.765 117.720,132.441 117.400,132.287 117.400 C 132.134 117.400,131.949 117.153,131.878 116.850 C 131.225 114.074,128.671 112.000,125.908 112.000 L 124.008 112.000 122.617 110.631 L 121.226 109.262 119.382 108.997 C 117.869 108.781,117.424 108.633,116.906 108.178 C 116.558 107.873,115.559 107.242,114.687 106.775 C 113.814 106.309,111.960 105.037,110.568 103.949 L 108.035 101.971 108.368 101.387 C 108.793 100.639,109.000 100.644,109.000 101.400 C 109.000 101.778,109.103 102.000,109.277 102.000 C 109.605 102.000,109.733 101.202,109.902 98.100 C 109.978 96.704,110.192 95.315,110.489 94.300 C 111.012 92.509,111.340 90.044,111.606 85.906 C 111.750 83.656,111.928 82.610,112.517 80.540 C 113.001 78.839,113.182 77.902,113.050 77.770 C 112.856 77.576,113.665 74.404,114.140 73.500 C 114.255 73.280,114.412 72.560,114.489 71.900 C 114.565 71.240,114.719 70.385,114.831 70.000 C 115.284 68.433,114.940 67.770,114.468 69.300 M93.664 97.600 C 93.664 98.315,93.700 98.608,93.745 98.250 C 93.789 97.892,93.789 97.308,93.745 96.950 C 93.700 96.593,93.664 96.885,93.664 97.600 M81.851 98.472 C 82.132 98.450,82.200 98.608,82.200 99.282 C 82.200 99.743,82.277 100.206,82.371 100.310 C 82.645 100.616,83.056 102.348,82.910 102.584 C 82.836 102.703,82.906 102.800,83.064 102.800 C 83.548 102.800,83.857 103.367,83.941 104.407 C 84.020 105.398,84.019 105.400,83.410 105.400 C 83.075 105.400,82.800 105.310,82.800 105.200 C 82.800 105.090,82.676 105.000,82.524 105.000 C 82.084 105.000,81.166 102.289,81.102 100.800 C 81.081 100.305,80.997 99.270,80.914 98.500 L 80.765 97.100 81.133 97.800 C 81.357 98.223,81.640 98.489,81.851 98.472 M68.400 98.862 C 68.400 99.116,68.532 99.498,68.694 99.712 C 68.967 100.073,68.988 100.041,68.994 99.250 C 68.998 98.625,68.921 98.400,68.700 98.400 C 68.520 98.400,68.400 98.585,68.400 98.862 M78.484 100.466 C 78.548 100.668,78.600 100.915,78.600 101.016 C 78.600 101.117,78.690 101.200,78.800 101.200 C 79.090 101.200,79.046 100.933,78.684 100.488 C 78.394 100.133,78.377 100.131,78.484 100.466 M126.216 101.683 C 125.967 101.948,125.795 102.329,125.834 102.530 C 125.888 102.811,126.009 102.717,126.360 102.122 C 126.903 101.203,126.842 101.017,126.216 101.683 M125.111 103.445 C 124.780 103.917,124.665 105.021,124.981 104.690 C 125.289 104.368,125.790 103.000,125.601 103.000 C 125.503 103.000,125.283 103.200,125.111 103.445 M124.539 105.479 C 124.458 105.687,124.438 105.904,124.495 105.962 C 124.678 106.144,124.838 105.845,124.762 105.466 C 124.692 105.118,124.681 105.118,124.539 105.479 M49.252 124.938 C 49.438 125.124,49.647 125.220,49.715 125.151 C 49.912 124.955,49.610 124.600,49.245 124.600 C 48.940 124.600,48.941 124.626,49.252 124.938 M84.500 125.325 C 71.711 126.298,58.670 129.198,49.300 133.151 C 42.831 135.881,42.239 136.301,40.986 139.051 C 40.669 139.747,40.324 139.799,39.000 139.354 C 37.949 139.001,37.000 139.013,37.000 139.379 C 37.000 139.796,39.393 140.449,40.599 140.361 C 41.734 140.279,41.800 140.299,41.800 140.721 C 41.800 141.379,42.005 141.800,42.326 141.800 C 42.809 141.800,43.051 142.786,42.807 143.757 C 42.615 144.519,42.638 144.691,42.999 145.199 L 43.410 145.775 42.792 146.478 C 42.453 146.865,41.983 147.242,41.749 147.316 C 41.184 147.496,40.714 148.075,40.095 149.354 L 39.585 150.408 38.683 149.880 C 38.188 149.589,37.746 149.387,37.702 149.431 C 37.532 149.602,37.935 149.964,38.760 150.382 C 40.241 151.133,39.991 152.370,38.345 152.432 C 37.542 152.462,37.535 152.468,38.200 152.543 C 39.310 152.669,39.483 153.087,38.862 154.146 L 38.340 155.038 38.879 156.838 L 39.418 158.637 38.695 159.519 C 37.825 160.580,36.886 161.321,36.032 161.619 C 35.407 161.837,35.035 163.200,35.600 163.200 C 35.710 163.200,35.800 163.380,35.800 163.600 C 35.800 163.828,35.933 164.000,36.110 164.000 C 36.280 164.000,36.528 164.248,36.661 164.550 C 37.129 165.618,38.041 167.000,38.277 167.000 C 38.632 167.000,42.059 168.983,42.350 169.356 C 42.487 169.532,42.600 169.929,42.600 170.238 C 42.600 170.547,42.696 170.800,42.814 170.800 C 42.932 170.800,43.420 171.070,43.900 171.400 C 44.380 171.730,44.884 172.000,45.020 172.000 C 45.157 172.000,45.425 172.142,45.617 172.316 C 46.041 172.699,48.151 170.821,50.355 168.100 L 51.651 166.500 50.420 166.380 C 49.512 166.291,49.058 166.136,48.686 165.787 C 48.261 165.388,48.123 165.352,47.794 165.557 C 46.999 166.054,46.200 165.871,46.200 165.194 C 46.200 164.361,46.697 164.215,47.229 164.892 C 47.718 165.513,48.181 165.311,47.819 164.635 C 47.515 164.068,47.496 164.094,48.523 163.702 C 49.103 163.480,49.493 163.423,49.573 163.548 C 49.643 163.657,50.105 163.949,50.600 164.196 C 51.095 164.443,51.691 164.820,51.925 165.034 L 52.349 165.422 53.475 163.108 C 54.094 161.836,54.603 160.683,54.606 160.547 C 54.622 159.957,55.239 159.507,55.941 159.576 C 56.371 159.619,56.542 160.843,56.364 162.600 C 55.832 167.825,53.195 172.200,48.750 175.231 C 47.377 176.167,47.403 175.899,48.527 177.507 C 49.453 178.831,49.540 178.877,50.440 178.505 C 50.669 178.410,50.928 178.530,51.240 178.875 C 52.362 180.119,52.883 180.503,53.762 180.735 C 55.406 181.169,56.256 181.072,57.573 180.300 C 59.872 178.953,61.823 179.953,60.898 182.005 C 60.608 182.648,60.574 183.088,60.693 184.678 C 60.858 186.876,60.903 186.774,59.000 188.498 C 57.451 189.902,57.003 190.516,57.001 191.239 C 57.001 191.536,56.685 192.316,56.300 192.973 C 55.915 193.630,55.600 194.237,55.600 194.323 C 55.600 194.408,55.915 194.173,56.300 193.800 C 57.224 192.905,57.202 193.375,56.272 194.404 C 55.799 194.928,55.429 195.173,55.213 195.104 C 54.715 194.946,51.600 198.512,51.600 199.240 C 51.600 199.389,51.291 200.156,50.914 200.944 C 50.512 201.782,50.315 202.405,50.439 202.446 C 50.770 202.557,48.878 204.704,46.560 206.850 C 44.585 208.678,41.460 213.126,41.865 213.532 C 42.048 213.715,42.789 213.109,42.999 212.606 C 43.115 212.327,44.288 211.118,45.606 209.918 C 47.718 207.994,48.363 207.234,51.036 203.518 C 52.705 201.198,54.103 199.258,54.144 199.208 C 54.185 199.157,54.393 199.224,54.606 199.358 C 55.533 199.936,56.298 199.676,57.470 198.380 C 58.647 197.079,58.805 197.045,59.203 198.006 C 59.570 198.893,59.181 200.096,58.396 200.502 C 57.724 200.849,57.435 201.349,56.815 203.237 C 56.442 204.373,56.295 204.591,55.834 204.693 C 54.985 204.879,53.570 207.324,52.997 209.594 C 52.901 209.976,52.855 210.322,52.895 210.362 C 53.049 210.516,56.151 206.423,56.285 205.890 C 56.899 203.444,59.438 202.312,60.289 204.105 C 60.799 205.180,60.843 205.147,63.044 202.047 C 68.063 194.976,71.935 188.320,78.661 175.200 C 89.044 154.946,98.008 141.582,109.061 129.875 C 111.215 127.594,112.138 126.484,111.961 126.391 C 111.677 126.241,110.840 126.135,106.300 125.672 C 103.463 125.383,87.148 125.123,84.500 125.325 M118.152 128.550 C 114.125 134.160,108.426 143.471,101.903 155.100 C 94.901 167.583,91.051 174.250,86.146 182.391 C 84.386 185.311,82.899 187.782,82.841 187.882 C 82.516 188.448,92.494 187.536,97.200 186.570 C 113.490 183.225,124.975 177.028,134.238 166.584 C 145.291 154.122,144.775 140.341,132.983 133.021 C 129.418 130.809,121.184 127.625,118.967 127.601 C 118.894 127.601,118.527 128.028,118.152 128.550 M150.088 139.286 C 149.734 139.546,149.730 139.583,150.038 139.703 C 150.555 139.903,151.088 139.735,151.162 139.348 C 151.246 138.915,150.639 138.880,150.088 139.286 M147.950 139.743 C 147.334 139.837,147.317 139.870,147.604 140.408 C 147.804 140.782,147.830 140.780,148.704 140.355 C 150.069 139.692,149.789 139.465,147.950 139.743 M20.200 140.100 C 20.200 140.265,20.377 140.400,20.593 140.400 C 20.809 140.400,21.081 140.577,21.196 140.793 C 21.460 141.287,22.919 141.761,23.226 141.454 C 23.377 141.303,23.272 141.204,22.863 141.114 C 22.547 141.044,21.885 140.721,21.394 140.395 C 20.378 139.721,20.200 139.677,20.200 140.100 M150.310 146.581 C 150.552 146.811,153.383 147.600,153.967 147.600 C 154.209 147.600,155.214 148.005,156.200 148.500 C 158.149 149.479,158.667 149.600,158.563 149.050 C 158.519 148.823,158.216 148.643,157.698 148.537 C 157.259 148.447,156.360 148.093,155.700 147.751 C 154.163 146.953,149.677 145.979,150.310 146.581 M29.366 147.147 C 28.084 147.228,27.371 147.885,25.614 150.600 C 24.677 152.049,24.793 152.286,26.169 151.736 C 26.579 151.572,27.336 151.374,27.851 151.297 C 28.682 151.172,29.646 150.600,29.024 150.600 C 28.304 150.600,29.112 149.115,29.945 148.907 C 30.884 148.673,31.820 148.159,31.734 147.923 C 31.689 147.801,31.789 147.542,31.957 147.350 C 32.291 146.967,32.262 146.964,29.366 147.147 M150.493 147.966 C 153.143 160.035,136.737 178.321,116.600 185.743 C 108.281 188.809,95.107 191.000,84.987 191.000 L 80.680 191.000 78.196 194.450 C 75.290 198.485,72.046 202.661,69.565 205.563 C 68.594 206.698,67.800 207.706,67.800 207.805 C 67.800 208.634,72.345 210.198,74.760 210.199 C 75.891 210.200,76.657 210.506,77.829 211.427 C 78.711 212.120,79.059 212.144,79.455 211.540 C 80.302 210.248,87.248 209.128,87.487 210.245 C 87.817 211.788,87.976 214.912,87.796 216.328 C 87.572 218.101,87.725 219.955,88.069 219.611 C 88.198 219.482,88.328 217.828,88.398 215.449 C 88.501 211.914,88.562 211.392,88.971 210.474 C 89.223 209.910,89.411 209.325,89.391 209.174 C 89.305 208.559,89.436 208.382,90.204 208.075 C 90.646 207.898,91.186 207.527,91.403 207.251 C 92.595 205.735,96.299 208.724,97.704 212.335 L 98.263 213.770 100.081 214.588 C 101.408 215.185,102.161 215.405,102.864 215.403 C 103.458 215.401,103.944 215.515,104.129 215.700 C 104.322 215.893,104.816 216.000,105.514 216.000 C 106.313 216.000,106.700 216.100,106.979 216.379 C 107.351 216.751,107.360 216.749,107.474 216.229 C 107.712 215.136,107.802 215.101,110.395 215.100 C 112.514 215.100,112.818 215.142,112.916 215.450 C 112.977 215.643,113.166 215.800,113.335 215.800 C 113.523 215.800,113.599 215.686,113.530 215.507 C 113.263 214.811,114.779 213.600,115.916 213.600 C 116.774 213.600,117.357 213.410,119.099 212.563 C 120.446 211.909,121.281 211.604,121.366 211.737 C 122.768 213.931,125.551 217.783,125.708 217.747 C 125.822 217.721,126.182 217.994,126.508 218.354 C 126.834 218.713,127.392 219.090,127.750 219.190 C 128.526 219.407,128.571 219.292,127.912 218.773 C 127.643 218.562,127.134 217.874,126.781 217.245 C 126.428 216.615,125.723 215.605,125.214 215.000 C 124.705 214.395,124.129 213.648,123.934 213.341 C 123.739 213.034,123.375 212.704,123.124 212.609 C 120.909 211.767,122.988 209.136,125.350 209.794 C 126.400 210.086,126.758 210.434,128.286 212.650 C 129.025 213.722,129.668 214.600,129.715 214.600 C 130.009 214.600,129.678 213.878,128.900 212.821 C 128.405 212.149,127.996 211.442,127.991 211.249 C 127.987 211.057,127.631 210.499,127.200 210.008 C 126.769 209.518,126.456 209.078,126.503 209.030 C 126.661 208.873,128.052 210.055,128.150 210.431 C 128.203 210.634,128.326 210.800,128.423 210.800 C 128.520 210.800,128.600 210.974,128.600 211.186 C 128.600 211.399,128.870 211.765,129.200 212.000 L 129.800 212.427 129.800 211.297 C 129.800 210.235,129.729 210.070,128.615 208.534 L 127.430 206.900 127.715 205.806 C 127.872 205.205,128.003 204.395,128.007 204.006 C 128.018 202.808,129.236 201.916,129.923 202.603 C 130.770 203.450,131.309 203.201,131.864 201.709 C 132.500 199.998,132.504 199.956,132.034 199.531 C 131.377 198.936,130.000 199.244,130.000 199.985 C 130.000 200.388,129.218 201.452,129.207 201.063 C 129.203 200.933,129.624 199.724,130.141 198.377 C 130.789 196.693,131.007 195.902,130.841 195.847 C 130.542 195.747,130.504 192.483,130.800 192.300 C 130.910 192.232,131.000 191.546,131.000 190.775 C 131.000 190.004,131.093 189.200,131.207 188.987 C 131.350 188.720,131.350 188.600,131.207 188.600 C 130.609 188.600,131.103 187.108,132.264 185.412 C 132.642 184.860,132.784 184.495,132.641 184.447 C 132.477 184.392,132.495 184.241,132.704 183.922 C 132.865 183.676,133.056 183.030,133.127 182.487 C 133.320 181.017,133.695 180.431,134.728 179.988 C 136.118 179.392,136.749 179.739,137.659 181.600 C 138.983 184.305,145.313 183.197,149.865 179.464 C 150.176 179.209,150.604 179.000,150.815 179.000 C 151.246 179.000,151.335 178.688,150.950 178.532 C 150.788 178.466,150.770 178.372,150.900 178.265 C 151.434 177.824,153.700 172.502,153.986 171.018 C 154.249 169.652,155.116 167.884,156.007 166.900 C 156.305 166.570,156.607 166.055,156.677 165.755 C 157.311 163.054,163.547 158.607,164.658 160.063 C 164.791 160.237,165.260 160.407,165.700 160.440 C 166.944 160.533,168.162 163.647,167.320 164.578 C 167.122 164.796,167.014 165.060,167.078 165.165 C 167.252 165.446,166.504 165.589,164.600 165.639 C 163.255 165.674,163.484 165.705,165.700 165.791 C 168.361 165.895,168.510 165.922,168.697 166.350 C 168.934 166.890,169.233 166.922,169.639 166.450 C 170.324 165.652,170.252 165.452,168.084 162.089 C 165.666 158.338,165.665 158.332,167.355 157.639 C 168.450 157.191,168.574 157.088,168.322 156.836 C 168.070 156.584,167.944 156.602,167.343 156.974 C 166.028 157.786,164.800 157.231,164.800 155.824 C 164.800 155.476,164.709 155.428,164.235 155.523 C 163.533 155.663,162.069 154.786,161.081 153.631 C 160.708 153.196,159.923 152.569,159.336 152.238 C 158.749 151.907,158.119 151.407,157.936 151.127 C 157.723 150.801,157.335 150.568,156.858 150.479 C 156.448 150.402,155.633 150.032,155.047 149.657 C 154.461 149.282,153.629 148.851,153.198 148.699 C 152.767 148.547,152.164 148.245,151.857 148.028 C 150.807 147.285,150.338 147.264,150.493 147.966 M165.600 164.493 C 165.600 164.667,165.774 164.800,166.000 164.800 C 166.220 164.800,166.400 164.758,166.400 164.707 C 166.400 164.656,166.220 164.518,166.000 164.400 C 165.681 164.229,165.600 164.248,165.600 164.493 M170.400 167.085 C 170.400 167.271,170.571 167.400,170.817 167.400 C 171.304 167.400,171.235 166.933,170.733 166.835 C 170.536 166.797,170.400 166.899,170.400 167.085 M134.200 186.479 C 134.200 186.632,134.071 186.807,133.914 186.867 C 133.039 187.203,131.898 190.501,131.964 192.504 L 132.028 194.436 132.536 194.309 C 133.915 193.963,134.842 193.306,136.100 191.785 L 137.400 190.214 137.400 188.886 C 137.400 187.487,137.243 187.230,135.917 186.457 C 135.329 186.114,134.200 186.129,134.200 186.479 M128.744 203.123 C 128.357 203.509,128.675 203.953,129.697 204.455 L 130.794 204.993 130.916 204.508 C 130.983 204.241,130.975 203.922,130.899 203.799 C 130.656 203.405,128.985 202.881,128.744 203.123 M51.533 203.933 C 51.315 204.152,51.379 205.237,51.601 205.099 C 52.099 204.791,52.433 203.800,52.038 203.800 C 51.834 203.800,51.607 203.860,51.533 203.933 M48.145 208.000 C 47.642 208.396,46.655 210.800,46.996 210.800 C 47.302 210.800,49.200 208.374,49.200 207.983 C 49.200 207.489,48.787 207.496,48.145 208.000 M45.350 212.286 C 44.983 212.557,44.875 213.000,45.176 213.000 C 45.429 213.000,45.850 212.447,45.769 212.221 C 45.729 212.110,45.552 212.137,45.350 212.286 M40.004 215.495 C 39.865 215.663,39.519 215.800,39.236 215.800 C 38.835 215.800,38.773 215.853,38.960 216.040 C 39.092 216.172,39.200 216.450,39.200 216.657 C 39.200 217.227,39.627 216.966,40.061 216.129 C 40.468 215.344,40.435 214.976,40.004 215.495 M128.807 215.928 C 128.798 216.227,129.534 217.131,129.674 216.992 C 129.734 216.933,129.565 216.618,129.298 216.292 C 129.032 215.966,128.811 215.803,128.807 215.928 M99.840 217.440 C 99.708 217.572,99.600 217.887,99.600 218.140 C 99.600 218.793,100.350 218.769,100.515 218.111 C 100.711 217.330,100.330 216.950,99.840 217.440 M119.066 218.084 C 119.127 218.242,119.237 218.694,119.311 219.088 C 119.385 219.482,119.539 219.862,119.654 219.933 C 119.789 220.017,119.817 219.892,119.734 219.581 C 119.663 219.317,119.604 218.862,119.603 218.571 C 119.601 218.272,119.460 217.989,119.278 217.919 C 119.052 217.833,118.989 217.882,119.066 218.084 M130.203 218.338 C 130.201 218.579,130.290 218.832,130.400 218.900 C 130.655 219.057,130.655 218.594,130.400 218.200 C 130.242 217.956,130.206 217.982,130.203 218.338 M101.050 218.945 C 100.251 219.044,100.085 219.800,100.862 219.800 C 101.117 219.800,101.526 219.988,101.773 220.217 C 102.319 220.727,102.800 220.586,102.800 219.918 C 102.800 219.485,102.116 218.738,101.805 218.832 C 101.747 218.850,101.408 218.900,101.050 218.945 M86.600 220.285 C 86.600 220.446,87.776 220.957,87.888 220.845 C 88.224 220.509,87.943 220.200,87.300 220.200 C 86.915 220.200,86.600 220.238,86.600 220.285 M131.516 220.600 C 133.316 223.809,137.000 228.832,137.000 228.078 C 137.000 227.895,132.630 221.751,131.966 221.000 C 131.626 220.615,131.423 220.435,131.516 220.600 M103.429 221.500 C 103.475 221.747,103.695 221.927,104.002 221.969 C 104.276 222.007,104.572 222.165,104.660 222.319 C 105.009 222.931,105.800 222.372,105.800 221.513 C 105.800 221.115,105.326 221.108,105.000 221.500 C 104.670 221.897,104.220 221.879,103.743 221.450 C 103.370 221.115,103.357 221.117,103.429 221.500 M87.321 221.718 C 87.254 221.891,87.209 222.588,87.221 223.266 L 87.242 224.500 87.506 223.700 C 87.930 222.412,87.759 220.576,87.321 221.718 M136.413 225.000 C 136.413 225.165,136.545 225.475,136.706 225.688 C 136.928 225.981,137.000 226.003,137.000 225.776 C 137.000 225.611,136.868 225.302,136.706 225.088 C 136.485 224.795,136.413 224.773,136.413 225.000 M137.030 229.000 C 137.145 229.330,137.275 229.600,137.320 229.600 C 137.364 229.600,137.400 229.330,137.400 229.000 C 137.400 228.610,137.299 228.400,137.110 228.400 C 136.875 228.400,136.860 228.513,137.030 229.000 M138.400 230.659 C 138.400 231.115,138.617 231.600,138.821 231.600 C 139.113 231.600,139.024 230.869,138.700 230.600 C 138.455 230.397,138.400 230.408,138.400 230.659 " stroke="none" fill="#e4048c" fill-rule="evenodd"></path><path id="path1" d="M125.100 117.831 C 122.420 118.895,119.380 120.588,117.328 122.160 L 116.156 123.057 113.128 122.530 C 89.161 118.354,54.291 122.973,35.400 132.826 C 20.268 140.719,12.980 152.366,15.391 164.805 C 18.603 181.370,43.910 184.940,53.594 170.194 C 55.530 167.245,56.985 161.423,56.117 160.098 C 55.547 159.228,55.246 159.456,54.401 161.400 C 53.401 163.699,52.690 165.042,52.131 165.688 C 51.852 166.011,51.659 166.334,51.704 166.407 C 51.920 166.757,46.915 172.273,46.165 172.511 C 45.978 172.571,45.235 173.014,44.515 173.498 C 35.630 179.455,25.662 176.695,22.501 167.402 C 20.500 161.519,22.969 152.397,27.876 147.545 C 28.457 146.970,29.368 146.007,29.900 145.405 C 31.107 144.040,34.352 141.176,35.750 140.244 C 36.328 139.859,36.800 139.473,36.800 139.387 C 36.800 139.301,37.093 139.131,37.450 139.008 C 37.807 138.885,39.180 138.159,40.500 137.394 C 52.164 130.635,67.634 126.380,84.900 125.182 C 91.563 124.720,104.188 125.146,110.869 126.058 L 112.638 126.300 109.169 129.975 C 98.010 141.796,89.402 154.592,78.948 174.900 C 71.759 188.865,68.134 195.108,63.034 202.300 C 62.098 203.620,61.135 204.880,60.893 205.100 C 60.651 205.320,59.817 206.265,59.039 207.200 C 48.286 220.120,31.775 227.371,21.124 223.851 C 15.430 221.969,12.713 216.003,15.224 210.895 C 17.937 205.376,24.427 203.280,31.647 205.593 C 33.842 206.296,35.480 206.401,35.691 205.851 C 36.354 204.123,25.325 201.887,19.578 202.583 C 6.704 204.143,1.336 217.066,10.523 224.376 C 17.996 230.322,35.550 230.327,47.418 224.388 C 54.239 220.973,64.139 212.870,67.400 208.031 C 67.675 207.623,68.671 206.392,69.613 205.295 C 71.992 202.523,75.096 198.526,78.070 194.405 L 80.591 190.910 85.446 190.868 C 95.668 190.777,108.099 188.689,116.400 185.668 C 133.152 179.571,147.728 165.882,150.224 153.900 C 150.509 152.536,150.496 146.700,150.208 146.700 C 150.189 146.700,150.135 146.413,150.090 146.063 C 149.923 144.787,148.410 141.409,147.662 140.641 C 147.524 140.498,147.252 140.048,147.059 139.641 C 146.672 138.827,143.896 136.013,141.691 134.200 C 137.442 130.707,130.248 127.051,123.600 125.006 C 122.445 124.651,121.467 124.329,121.427 124.291 C 121.281 124.151,123.815 121.953,125.518 120.743 C 130.690 117.068,130.493 115.692,125.100 117.831 M120.800 127.879 C 144.738 133.360,149.431 152.562,131.096 170.009 C 119.599 180.949,103.696 187.266,85.519 188.113 C 82.073 188.273,82.241 188.486,83.821 185.970 C 87.811 179.616,93.468 169.874,102.500 153.800 C 110.465 139.626,118.322 127.233,119.184 127.488 C 119.358 127.539,120.085 127.715,120.800 127.879 M274.694 144.870 C 269.180 147.518,263.254 156.138,256.285 171.648 L 255.500 173.396 251.365 173.398 L 247.229 173.400 246.815 173.927 C 246.287 174.598,246.261 175.813,246.766 176.269 C 247.076 176.550,247.651 176.600,250.566 176.600 C 252.455 176.600,254.000 176.646,254.000 176.703 C 254.000 176.760,253.376 178.358,252.613 180.253 C 249.982 186.794,247.992 192.444,246.484 197.659 C 245.338 201.623,245.168 202.025,242.947 206.000 C 236.684 217.212,230.371 223.063,227.565 220.257 C 224.628 217.320,229.692 203.746,241.353 183.300 C 243.198 180.066,243.201 180.082,240.820 180.261 C 232.723 180.868,218.886 190.666,208.846 202.903 C 207.629 204.386,212.605 194.885,215.865 189.500 C 218.383 185.342,222.062 180.598,222.999 180.300 C 223.769 180.056,223.389 179.900,221.950 179.868 C 221.152 179.851,219.887 179.693,219.138 179.518 C 213.874 178.289,212.662 179.644,203.736 196.735 C 193.486 216.361,190.122 220.666,185.054 220.637 C 181.711 220.618,180.620 218.045,181.887 213.169 C 182.210 211.928,184.350 206.695,188.216 197.697 C 191.428 190.219,194.267 183.605,194.524 183.000 C 195.890 179.781,194.715 179.083,188.231 179.261 C 183.562 179.388,183.813 179.312,184.494 180.391 C 186.050 182.856,186.025 182.988,182.205 192.680 C 178.877 201.124,178.347 202.310,176.344 205.800 C 172.318 212.812,167.612 218.784,165.185 219.959 C 163.394 220.826,161.837 220.279,161.771 218.759 C 161.604 214.914,162.357 210.910,164.074 206.500 C 166.194 201.057,172.106 190.285,173.897 188.602 C 174.647 187.898,174.580 187.862,172.250 187.724 C 171.067 187.654,169.470 187.544,168.700 187.480 C 165.526 187.217,163.721 188.656,161.012 193.612 C 150.675 212.522,144.559 219.946,139.280 219.991 C 131.475 220.058,138.087 201.682,150.802 187.969 C 158.675 179.478,166.559 177.499,169.415 183.299 C 170.167 184.828,171.108 185.110,172.109 184.109 C 173.835 182.383,170.866 178.949,166.198 177.271 C 162.618 175.984,153.579 176.992,151.384 178.922 C 151.211 179.075,150.939 179.200,150.780 179.200 C 150.621 179.200,149.728 179.701,148.796 180.313 C 147.863 180.925,146.785 181.591,146.400 181.793 C 142.387 183.902,134.409 194.526,132.472 200.340 C 132.186 201.198,131.780 202.260,131.569 202.700 C 131.358 203.140,131.147 203.802,131.099 204.172 C 131.052 204.541,130.930 204.946,130.829 205.072 C 130.588 205.372,130.340 206.548,130.360 207.294 C 130.369 207.621,130.280 208.003,130.164 208.144 C 130.047 208.284,129.923 209.256,129.888 210.302 C 129.854 211.349,129.771 212.378,129.704 212.588 C 129.216 214.126,130.350 218.616,131.706 220.518 C 136.682 227.497,144.102 224.127,153.334 210.694 C 154.415 209.121,155.319 207.853,155.343 207.877 C 155.366 207.900,155.208 208.770,154.990 209.809 C 153.774 215.626,154.484 219.775,157.105 222.170 C 161.411 226.105,166.997 223.770,172.855 215.587 C 173.760 214.323,174.662 213.066,174.859 212.794 L 175.218 212.300 175.123 213.312 C 174.195 223.165,184.341 227.152,191.950 219.924 C 193.035 218.894,193.030 218.921,191.600 221.933 C 190.268 224.738,190.217 224.912,190.820 224.589 C 191.051 224.465,192.612 224.244,194.289 224.098 C 198.907 223.694,198.907 223.694,201.506 218.800 C 206.922 208.599,212.276 201.321,218.756 195.349 C 224.195 190.337,226.343 189.140,228.186 190.093 C 229.542 190.794,229.209 191.905,226.151 196.878 C 217.257 211.342,216.572 221.302,224.300 223.784 C 230.683 225.834,236.738 221.644,243.005 210.841 L 243.751 209.556 243.725 212.428 C 243.679 217.657,245.046 220.652,248.416 222.707 C 254.094 226.169,261.354 222.767,267.420 213.800 L 268.300 212.500 268.418 214.700 C 268.735 220.642,271.662 223.609,277.192 223.596 C 281.716 223.585,286.633 219.848,290.961 213.132 L 292.100 211.363 292.231 213.054 C 292.887 221.496,299.572 225.802,306.722 222.389 C 311.352 220.180,317.858 212.466,323.224 202.823 C 324.675 200.215,324.705 200.291,324.535 206.082 C 324.340 212.733,323.298 219.126,321.479 224.825 L 321.184 225.750 319.042 226.569 C 317.864 227.019,313.750 228.459,309.900 229.768 C 284.587 238.378,274.745 245.559,274.770 255.400 C 274.785 261.072,277.273 264.017,282.970 265.107 C 298.787 268.134,318.224 252.296,328.512 228.000 L 329.571 225.500 331.190 224.564 C 336.474 221.511,340.513 217.290,343.402 211.804 C 343.753 211.137,343.966 211.646,343.986 213.200 C 344.118 223.507,352.929 226.782,363.271 220.368 L 364.843 219.393 365.616 220.090 C 369.190 223.320,375.610 223.424,380.200 220.327 C 384.614 217.349,391.053 207.282,394.273 198.322 C 394.520 197.635,393.882 196.968,393.046 197.039 L 392.316 197.100 389.301 203.100 C 385.363 210.936,383.811 213.220,379.835 217.037 C 375.685 221.020,371.359 221.449,368.301 218.181 L 367.364 217.178 369.038 215.439 C 383.300 200.620,385.843 179.499,373.600 177.557 C 365.810 176.321,355.411 183.667,349.051 194.900 C 348.080 196.616,345.200 203.109,345.200 203.583 C 345.200 204.958,340.064 212.716,337.469 215.262 C 335.345 217.346,331.337 220.651,331.241 220.399 C 331.208 220.314,331.405 219.357,331.678 218.272 C 333.960 209.197,334.429 199.778,333.032 191.054 C 332.722 189.113,332.649 188.907,332.294 188.967 C 332.077 189.004,331.360 189.126,330.700 189.238 C 326.660 189.924,325.628 190.822,324.189 194.901 C 321.458 202.636,314.286 213.004,308.831 217.102 C 304.291 220.512,301.153 220.429,299.322 216.850 C 295.740 209.848,310.521 186.533,321.859 181.301 C 327.417 178.736,330.785 179.753,332.787 184.600 C 333.657 186.706,334.582 187.255,335.475 186.194 C 336.998 184.383,336.556 182.404,334.250 180.704 C 327.229 175.529,318.090 175.578,310.100 180.835 C 304.218 184.704,297.305 193.864,294.011 202.150 C 292.663 205.541,288.165 212.938,285.259 216.542 C 280.755 222.129,274.599 222.155,274.601 216.587 C 274.601 213.947,275.248 212.183,281.903 196.663 C 288.610 181.021,288.654 180.896,287.719 180.018 C 286.871 179.221,283.899 178.984,279.051 179.329 L 277.240 179.457 278.035 180.967 C 279.191 183.162,279.173 183.248,275.504 192.558 C 270.873 204.310,265.780 212.808,260.633 217.370 C 257.537 220.116,253.760 220.821,252.073 218.969 C 250.350 217.079,250.419 214.871,252.499 205.400 L 254.058 198.300 257.384 194.900 C 262.481 189.689,265.350 186.127,269.345 180.050 L 271.612 176.600 275.592 176.600 L 279.571 176.600 279.985 176.073 C 280.433 175.504,280.532 174.420,280.193 173.787 C 280.001 173.428,279.744 173.400,276.693 173.400 C 274.882 173.400,273.400 173.369,273.400 173.330 C 273.400 173.292,274.653 170.704,276.185 167.580 C 280.401 158.979,281.768 155.258,282.095 151.495 C 282.599 145.681,279.249 142.682,274.694 144.870 M278.609 149.816 C 279.907 152.242,277.515 159.559,272.070 169.816 L 270.167 173.400 266.992 173.400 L 263.818 173.400 264.435 171.950 C 270.857 156.857,277.132 147.058,278.609 149.816 M193.752 163.389 C 190.874 164.514,188.988 167.644,189.584 170.306 C 190.964 176.475,200.600 174.036,200.600 167.517 C 200.600 164.207,197.083 162.087,193.752 163.389 M286.966 163.384 C 283.739 164.646,281.801 168.677,283.154 171.314 C 285.195 175.291,291.103 174.580,293.230 170.100 C 295.294 165.752,291.450 161.630,286.966 163.384 M268.200 176.693 C 268.200 176.872,265.499 180.922,263.727 183.400 C 261.905 185.948,258.680 189.938,256.695 192.100 C 255.365 193.549,255.118 194.300,259.230 184.384 L 262.457 176.600 265.328 176.600 C 266.908 176.600,268.200 176.642,268.200 176.693 M375.419 182.265 C 380.073 184.720,378.013 196.447,370.829 208.392 L 369.812 210.083 369.856 209.077 C 370.011 205.543,364.665 203.740,362.424 206.570 C 360.691 208.758,360.839 213.623,362.725 216.474 L 363.255 217.274 362.677 217.743 C 354.973 224.002,349.865 220.366,352.116 210.224 C 355.628 194.396,368.695 178.719,375.419 182.265 M319.073 231.550 C 317.282 235.492,313.609 241.464,310.926 244.800 C 304.193 253.170,300.700 256.259,294.300 259.506 C 282.949 265.264,275.537 263.055,278.176 254.700 C 281.185 245.170,289.163 240.322,318.100 230.441 C 319.852 229.843,319.850 229.840,319.073 231.550 " stroke="none" fill="#fcfbfc" fill-rule="evenodd"></path><path id="path2" d="M92.459 120.949 C 93.317 120.986,94.667 120.986,95.459 120.948 C 96.252 120.910,95.550 120.880,93.900 120.880 C 92.250 120.880,91.602 120.911,92.459 120.949 M87.450 125.146 C 87.863 125.189,88.538 125.189,88.950 125.146 C 89.363 125.103,89.025 125.067,88.200 125.067 C 87.375 125.067,87.038 125.103,87.450 125.146 M107.291 131.850 L 106.500 132.700 107.350 131.909 C 108.140 131.174,108.292 131.000,108.141 131.000 C 108.108 131.000,107.725 131.383,107.291 131.850 " stroke="none" fill="#f48dcc" fill-rule="evenodd"></path><path id="path3" d="M128.487 118.450 L 127.900 119.100 128.550 118.513 C 128.907 118.190,129.200 117.897,129.200 117.863 C 129.200 117.708,129.035 117.844,128.487 118.450 M88.550 120.946 C 89.017 120.989,89.783 120.989,90.250 120.946 C 90.718 120.904,90.335 120.870,89.400 120.870 C 88.465 120.870,88.083 120.904,88.550 120.946 M97.555 120.947 C 98.026 120.989,98.746 120.988,99.155 120.945 C 99.565 120.902,99.180 120.868,98.300 120.869 C 97.420 120.869,97.085 120.904,97.555 120.947 M122.491 123.250 L 121.700 124.100 122.550 123.309 C 123.340 122.574,123.492 122.400,123.341 122.400 C 123.308 122.400,122.925 122.783,122.491 123.250 M91.550 125.149 C 92.678 125.185,94.523 125.185,95.650 125.149 C 96.778 125.114,95.855 125.084,93.600 125.084 C 91.345 125.084,90.423 125.114,91.550 125.149 M100.850 125.338 C 101.043 125.388,101.358 125.388,101.550 125.338 C 101.743 125.288,101.585 125.246,101.200 125.246 C 100.815 125.246,100.658 125.288,100.850 125.338 M111.965 126.337 C 112.162 126.416,112.111 126.578,111.765 126.972 L 111.300 127.500 111.844 127.021 C 112.374 126.554,112.417 126.184,111.938 126.216 C 111.781 126.226,111.790 126.267,111.965 126.337 M109.389 129.550 L 108.700 130.300 109.450 129.611 C 110.148 128.969,110.292 128.800,110.139 128.800 C 110.106 128.800,109.768 129.138,109.389 129.550 M105.691 133.450 L 104.900 134.300 105.750 133.509 C 106.540 132.774,106.692 132.600,106.541 132.600 C 106.508 132.600,106.125 132.983,105.691 133.450 M131.291 169.650 L 130.500 170.500 131.350 169.709 C 131.817 169.275,132.200 168.892,132.200 168.859 C 132.200 168.708,132.026 168.860,131.291 169.650 M48.291 170.450 L 47.500 171.300 48.350 170.509 C 49.140 169.774,49.292 169.600,49.141 169.600 C 49.108 169.600,48.725 169.983,48.291 170.450 M51.593 172.750 L 50.500 173.900 51.650 172.807 C 52.718 171.791,52.892 171.600,52.743 171.600 C 52.712 171.600,52.194 172.118,51.593 172.750 M89.250 190.938 C 89.442 190.988,89.758 190.988,89.950 190.938 C 90.142 190.888,89.985 190.846,89.600 190.846 C 89.215 190.846,89.058 190.888,89.250 190.938 " stroke="none" fill="#ed5bb9" fill-rule="evenodd"></path><path id="path4" d="M144.000 136.300 C 144.373 136.685,144.723 137.000,144.778 137.000 C 144.833 137.000,144.573 136.685,144.200 136.300 C 143.827 135.915,143.477 135.600,143.422 135.600 C 143.367 135.600,143.627 135.915,144.000 136.300 M139.887 170.850 L 139.300 171.500 139.950 170.913 C 140.308 170.590,140.600 170.297,140.600 170.263 C 140.600 170.108,140.435 170.244,139.887 170.850 M83.355 188.147 C 83.826 188.189,84.546 188.188,84.955 188.145 C 85.365 188.102,84.980 188.068,84.100 188.069 C 83.220 188.069,82.885 188.104,83.355 188.147 M81.150 190.945 C 81.508 190.989,82.093 190.989,82.450 190.945 C 82.808 190.900,82.515 190.864,81.800 190.864 C 81.085 190.864,80.793 190.900,81.150 190.945 M87.152 190.941 C 87.401 190.989,87.761 190.987,87.952 190.937 C 88.144 190.887,87.940 190.848,87.500 190.850 C 87.060 190.853,86.904 190.894,87.152 190.941 " stroke="none" fill="#fcbce4" fill-rule="evenodd"></path></g></svg>